<svg xmlns="http://www.w3.org/2000/svg" viewBox="0 0 512 512">
  <defs>
    <linearGradient id="sbg" x1="0%" y1="0%" x2="0%" y2="100%">
      <stop offset="0%" stop-color="#2563eb"/>
      <stop offset="100%" stop-color="#1d4ed8"/>
    </linearGradient>
  </defs>
  <path fill="url(#sbg)" d="M256 28 434 92v136c0 123-74 216-178 256C152 444 78 351 78 228V92z"/>
  <path fill="#dbeafe" d="M256 70 398 121v111c0 99-58 174-142 212-84-38-142-113-142-212V121z"/>
  <rect x="154" y="140" width="204" height="252" rx="28" fill="#ffffff" stroke="#1e40af" stroke-width="14"/>
  <circle cx="198" cy="186" r="16" fill="#1d4ed8"/>
  <circle cx="314" cy="346" r="16" fill="#1d4ed8"/>
  <path fill="#1d4ed8" d="M256 194c-35 0-70 30-70 65 0 24 13 42 33 53l37 21 37-21c20-11 33-29 33-53 0-35-35-65-70-65zm-18 133h36v30h-36z"/>
</svg>
